<?xml version="1.0" encoding="utf-8"?><!DOCTYPE svg PUBLIC "-//W3C//DTD SVG 1.1//EN" "http://www.w3.org/Graphics/SVG/1.1/DTD/svg11.dtd"><svg version="1.1" baseProfile="full" xmlns="http://www.w3.org/2000/svg" xmlns:xlink="http://www.w3.org/1999/xlink" xmlns:ev="http://www.w3.org/2001/xml-events"   height="22px"   width="23px" ><path fill="rgb( 148, 156, 167 )" d="M17.702,16.4690000000001 C17.702,16.4690000000001 12.129,16.4690000000001 12.129,16.4690000000001 C12.129,16.4690000000001 12.129,15.558 12.129,15.558 C12.129,15.558 17.703,15.558 17.703,15.558 C20.1420000000001,15.558 22.126,13.491 22.126,10.9499999999998 C22.126,8.67299999999977 20.4930000000001,6.71399999999994 18.331,6.39300000000003 C18.189,6.37199999999984 18.0650000000001,6.2800000000002 18.002,6.14699999999993 C17.169,4.42299999999977 15.364,3.45600000000013 13.443,3.91899999999987 C13.231,3.9699999999998 13.016,3.85199999999986 12.938,3.64100000000008 C12.313,1.98300000000017 10.808,0.91100000000006 9.10199999999998,0.91100000000006 C6.83000000000004,0.91100000000006 4.98000000000002,2.83800000000019 4.98000000000002,5.20600000000013 C4.98000000000002,5.4079999999999 4.99900000000002,5.625 5.03599999999994,5.87300000000005 C5.05499999999995,5.99299999999994 5.02499999999998,6.11599999999999 4.95600000000002,6.21399999999994 C4.88599999999997,6.3119999999999 4.78200000000004,6.37699999999995 4.66600000000005,6.39499999999998 C2.505,6.7170000000001 0.875,8.67599999999993 0.875,10.9499999999998 C0.875,13.491 2.85799999999995,15.558 5.29700000000003,15.558 C5.29700000000003,15.558 9.48500000000001,15.558 9.48500000000001,15.558 C9.48500000000001,15.558 9.48500000000001,16.4699999999998 9.48500000000001,16.4699999999998 C9.48500000000001,16.4699999999998 5.29700000000003,16.4699999999998 5.29700000000003,16.4699999999998 C2.37599999999998,16.4699999999998 0,13.9940000000001 0,10.9499999999998 C0,8.3739999999998 1.74400000000003,6.13700000000017 4.12099999999998,5.57400000000007 C4.11099999999999,5.44599999999991 4.10699999999997,5.32400000000007 4.10699999999997,5.20600000000013 C4.10699999999997,2.33500000000004 6.34699999999998,0 9.10199999999998,0 C11.048,0 12.778,1.14899999999989 13.605,2.95899999999983 C15.712,2.60800000000017 17.677,3.67299999999977 18.676,5.529 C21.1559999999999,6.01099999999997 23,8.30099999999993 23,10.9499999999998 C23,13.9929999999999 20.624,16.4690000000001 17.702,16.4690000000001 ZM7.88400000000001,10.7220000000002 C7.70899999999995,10.54 7.70899999999995,10.2460000000001 7.88400000000001,10.0630000000001 C7.88400000000001,10.0630000000001 10.38,7.46199999999999 10.38,7.46199999999999 C10.466,7.37300000000005 10.58,7.32600000000002 10.696,7.32600000000002 C10.698,7.32600000000002 10.7,7.32700000000023 10.703,7.32700000000023 C10.703,7.32700000000023 10.711,7.32600000000002 10.711,7.32600000000002 C10.825,7.32600000000002 10.939,7.37100000000009 11.026,7.46199999999999 C11.026,7.46199999999999 13.522,10.0630000000001 13.522,10.0630000000001 C13.698,10.2460000000001 13.698,10.54 13.522,10.7220000000002 C13.348,10.9050000000002 13.0650000000001,10.9050000000002 12.89,10.7220000000002 C12.89,10.7220000000002 11.143,8.90099999999984 11.143,8.90099999999984 C11.143,8.90099999999984 11.143,21.5340000000001 11.143,21.5340000000001 C11.143,21.7919999999999 10.942,22 10.696,22 C10.448,22 10.248,21.7919999999999 10.248,21.5340000000001 C10.248,21.5340000000001 10.248,8.91699999999992 10.248,8.91699999999992 C10.248,8.91699999999992 8.51599999999996,10.7220000000002 8.51599999999996,10.7220000000002 C8.34100000000001,10.9050000000002 8.05899999999997,10.9050000000002 7.88400000000001,10.7220000000002 Z "/></svg>